<?xml version="1.0" standalone="no"?>
<!DOCTYPE svg PUBLIC "-//W3C//DTD SVG 20010904//EN"
 "http://www.w3.org/TR/2001/REC-SVG-20010904/DTD/svg10.dtd">
<svg version="1.0" xmlns="http://www.w3.org/2000/svg"
 width="460.000000pt" height="460.000000pt" viewBox="0 0 460.000000 460.000000"
 preserveAspectRatio="xMidYMid meet">

<g transform="translate(0.000000,460.000000) scale(0.100000,-0.100000)"
fill="#000000" stroke="none">
<path d="M1206 4049 c-48 -118 -61 -314 -30 -437 16 -61 15 -65 -3 -91 -102
-139 -153 -245 -174 -366 -8 -46 -10 -127 -6 -245 6 -164 15 -224 51 -337 l7
-23 -207 0 c-316 0 -745 -44 -713 -74 2 -2 50 5 106 15 182 32 671 59 776 42
42 -7 51 -12 62 -40 l13 -32 -61 -5 c-238 -19 -423 -40 -552 -62 -164 -27
-315 -62 -330 -75 -15 -14 9 -11 115 16 154 39 487 85 736 101 l102 6 18 -28
c80 -127 196 -229 338 -299 80 -40 247 -88 381 -110 50 -8 94 -15 99 -15 5 0
-12 -22 -37 -49 -46 -50 -75 -99 -96 -163 -13 -41 -43 -57 -146 -78 -150 -31
-292 26 -376 153 -55 81 -134 163 -184 189 -53 28 -175 37 -193 15 -18 -22 -4
-41 83 -110 80 -63 134 -135 171 -230 31 -78 66 -128 123 -176 97 -80 191
-106 356 -98 61 4 119 9 129 13 16 6 17 -5 14 -197 -4 -244 -9 -262 -100 -322
-93 -62 -71 -105 47 -93 90 9 151 33 192 75 68 70 67 65 73 396 4 267 7 304
24 338 10 20 22 40 27 43 5 3 9 -146 9 -345 0 -390 -6 -435 -69 -506 -77 -88
7 -126 130 -58 64 34 103 77 131 143 22 54 23 65 26 423 l3 367 29 0 29 0 3
-367 c3 -362 4 -369 27 -426 29 -71 90 -128 167 -157 62 -23 95 -25 112 -8 20
20 14 45 -19 83 -63 71 -69 116 -69 501 0 229 3 343 10 339 6 -3 18 -21 28
-38 15 -28 18 -72 22 -332 4 -260 7 -304 22 -330 49 -84 110 -122 223 -138
134 -20 167 24 68 90 -98 65 -97 60 -104 463 -5 361 -6 367 -54 460 -10 18
-37 54 -61 80 l-44 47 86 12 c143 20 322 70 413 115 138 68 286 213 317 308 6
20 11 20 123 14 241 -14 581 -61 743 -101 105 -27 127 -30 112 -16 -39 37
-519 112 -876 137 l-86 6 13 31 c12 29 18 33 72 40 127 16 603 -9 786 -42 56
-10 104 -17 106 -15 9 9 -10 15 -85 29 -139 26 -415 45 -638 45 -119 0 -216 3
-216 8 0 4 7 41 15 82 9 42 18 158 22 260 5 150 3 202 -11 270 -21 110 -105
283 -173 359 l-49 54 13 61 c24 116 12 263 -33 398 l-16 48 -47 0 c-76 0 -198
-36 -306 -91 -55 -28 -107 -56 -115 -64 -8 -7 -29 -20 -46 -28 -28 -14 -40
-14 -145 4 -234 42 -561 34 -791 -17 l-67 -15 -102 61 c-162 99 -306 150 -419
150 -35 0 -39 -3 -54 -41z m968 -956 c118 -4 272 -1 406 7 328 20 425 -2 540
-119 115 -118 157 -252 131 -421 -38 -248 -160 -382 -403 -440 -136 -32 -304
-43 -605 -37 -297 5 -394 16 -533 62 -213 70 -324 179 -371 365 -31 123 -24
244 18 331 45 92 130 181 206 219 83 40 148 50 297 44 69 -2 210 -7 314 -11z
m-1135 -1042 c19 -12 6 -41 -18 -41 -23 0 -35 15 -27 35 6 17 24 19 45 6z
m109 -73 c4 -21 -34 -34 -54 -17 -11 9 -12 15 -2 26 15 18 52 13 56 -9z m52
-58 c13 -9 13 -12 -3 -25 -21 -15 -47 -10 -47 9 0 26 24 33 50 16z m58 -82
c15 -15 -3 -38 -29 -38 -22 0 -33 16 -25 35 7 18 37 20 54 3z m57 -88 c0 -18
-33 -26 -47 -12 -6 6 -7 15 -3 22 10 16 50 8 50 -10z m83 -52 c15 -15 -3 -38
-29 -38 -22 0 -33 16 -25 35 7 18 37 20 54 3z m347 -38 c0 -18 -43 -26 -57
-12 -16 16 2 33 30 30 16 -2 27 -9 27 -18z m-230 -20 c0 -18 -43 -26 -57 -12
-16 16 2 33 30 30 16 -2 27 -9 27 -18z m110 0 c0 -9 -11 -16 -27 -18 -23 -3
-28 1 -28 18 0 17 5 21 28 18 16 -2 27 -9 27 -18z"/>
<path d="M1687 2791 c-72 -80 -70 -216 3 -295 31 -32 44 -40 74 -40 78 0 131
77 131 189 -1 117 -49 185 -131 185 -36 0 -47 -6 -77 -39z"/>
<path d="M2785 2808 c-65 -51 -86 -183 -42 -268 27 -55 81 -94 117 -85 124 29
164 243 65 342 -41 41 -97 45 -140 11z"/>
<path d="M2259 2419 c-26 -26 -21 -49 13 -68 24 -14 28 -14 47 3 27 25 27 51
-1 70 -29 21 -34 20 -59 -5z"/>
<path d="M2180 2262 c0 -41 81 -88 132 -77 38 9 88 52 88 76 0 27 -12 23 -32
-10 -30 -54 -131 -51 -156 5 -14 28 -32 32 -32 6z"/>
</g>
</svg>
